<?xml version="1.0" encoding="UTF-8"?>
<svg id="Layer_1" data-name="Layer 1" xmlns="http://www.w3.org/2000/svg" version="1.1" viewBox="0 0 30 30">
  <defs>
    <style>
      .cls-1 {
        fill: #757575;
        stroke-width: 0px;
      }
    </style>
  </defs>
  <path class="cls-1" d="M20.8,5h-11.6c-2.3,0-4.2,1.9-4.2,4.2v11.6c0,2.3,1.9,4.2,4.2,4.2h11.6c2.3,0,4.2-1.9,4.2-4.2v-11.6c0-2.3-1.9-4.2-4.3-4.2ZM11.7,20.8h-2.5v-9.1h2.5v9.1ZM10.4,10.6c-.8,0-1.5-.7-1.5-1.5s.7-1.5,1.5-1.5,1.5.7,1.5,1.5h0c0,.8-.7,1.5-1.5,1.5ZM21.7,20.8h-2.5v-4.7c0-2.8-3.3-2.6-3.3,0v4.7h-2.5v-9.1h2.5v1.5c1.1-2.1,5.8-2.3,5.8,2.1v5.6h0Z"/>
</svg>