<?xml version="1.0" encoding="UTF-8"?>
<svg id="Layer_1" data-name="Layer 1" xmlns="http://www.w3.org/2000/svg" version="1.1" viewBox="0 0 30 30">
  <defs>
    <style>
      .cls-1 {
        fill: #757575;
        stroke-width: 0px;
      }
    </style>
  </defs>
  <path class="cls-1" d="M28.7,8.1c-.3-1.2-1.3-2.2-2.6-2.6-2.2-.6-11.1-.6-11.1-.6,0,0-9,0-11.1.6-1.2.3-2.2,1.3-2.6,2.6-.4,2.3-.6,4.6-.6,6.9s.2,4.6.6,6.9c.3,1.2,1.3,2.2,2.6,2.6,2.2.6,11.1.6,11.1.6,0,0,9,0,11.1-.6,1.2-.3,2.2-1.3,2.6-2.6.4-2.3.6-4.6.6-6.9s-.2-4.6-.6-6.9ZM12.1,19.3v-8.6l7.4,4.3s-7.4,4.3-7.4,4.3Z"/>
</svg>